<svg id="visual" viewBox="0 0 960 540" width="960" height="540" xmlns="http://www.w3.org/2000/svg" xmlns:xlink="http://www.w3.org/1999/xlink" version="1.1"><rect width="960" height="540" fill="#4d9484"></rect><g><g transform="translate(112 527)"><path d="M64.4 -35.4C77.3 -14.9 77.2 14.8 64.3 36.9C51.4 59 25.7 73.5 -1.7 74.5C-29 75.4 -58.1 62.9 -71.2 40.6C-84.4 18.3 -81.6 -13.6 -67.1 -35.1C-52.6 -56.6 -26.3 -67.6 -0.3 -67.4C25.8 -67.3 51.6 -56 64.4 -35.4Z" fill="#97c9be"></path></g><g transform="translate(642 412)"><path d="M30.5 -18C36.2 -7.9 35 5.8 28.7 15.3C22.5 24.8 11.2 30.1 0.8 29.6C-9.7 29.2 -19.3 22.9 -24.6 14C-29.9 5 -30.8 -6.7 -26 -16.4C-21.2 -26.1 -10.6 -33.7 0.9 -34.3C12.5 -34.8 24.9 -28.2 30.5 -18Z" fill="#97c9be"></path></g><g transform="translate(901 523)"><path d="M20 -11.5C23.3 -5.8 21.6 2.9 17.5 9.9C13.3 16.8 6.7 22.2 -0.7 22.5C-8 22.9 -16.1 18.4 -19.8 11.7C-23.5 5 -22.8 -3.9 -18.8 -10C-14.8 -16.1 -7.4 -19.4 0.5 -19.6C8.3 -19.9 16.7 -17.2 20 -11.5Z" fill="#97c9be"></path></g><g transform="translate(82 37)"><path d="M38.5 -22.6C46 -9.2 45.6 8.5 37.9 22.3C30.2 36.1 15.1 46.1 0 46.1C-15.1 46.1 -30.1 36.1 -38.3 22C-46.4 7.9 -47.7 -10.2 -40.2 -23.6C-32.7 -37 -16.3 -45.7 -0.4 -45.4C15.5 -45.2 30.9 -36 38.5 -22.6Z" fill="#97c9be"></path></g><g transform="translate(329 297)"><path d="M58.4 -36C69 -15.5 66.1 10.5 54.1 29.7C42.2 48.8 21.1 61.1 -2.1 62.2C-25.2 63.4 -50.4 53.5 -62.8 34.1C-75.2 14.7 -74.9 -14.2 -62.3 -35.8C-49.7 -57.5 -24.9 -71.9 -0.5 -71.6C23.9 -71.4 47.9 -56.4 58.4 -36Z" fill="#97c9be"></path></g><g transform="translate(744 170)"><path d="M57.4 -33.5C69.9 -11.6 72.3 15.8 61.1 36.5C49.9 57.2 24.9 71.3 1.7 70.3C-21.6 69.4 -43.2 53.4 -55.8 31.9C-68.4 10.4 -72 -16.6 -61.2 -37.7C-50.4 -58.7 -25.2 -73.7 -1.4 -72.9C22.5 -72.1 44.9 -55.5 57.4 -33.5Z" fill="#97c9be"></path></g><g transform="translate(98 282)"><path d="M21.7 -12.2C26.6 -4.2 27.8 6.3 23.6 14.2C19.4 22.2 9.7 27.5 -0.1 27.6C-9.8 27.6 -19.7 22.3 -24.2 14.2C-28.7 6.1 -28 -4.8 -23 -12.9C-18.1 -21 -9.1 -26.3 -0.3 -26.1C8.4 -25.9 16.9 -20.3 21.7 -12.2Z" fill="#97c9be"></path></g><g transform="translate(374 530)"><path d="M18.8 -10.5C22.7 -4.1 23.1 4.8 19.4 11.7C15.7 18.6 7.8 23.6 0 23.6C-7.9 23.7 -15.8 18.7 -19.5 11.8C-23.1 4.9 -22.5 -3.8 -18.5 -10.3C-14.6 -16.8 -7.3 -21 0.1 -21C7.4 -21.1 14.9 -17 18.8 -10.5Z" fill="#97c9be"></path></g><g transform="translate(554 62)"><path d="M63.3 -39.4C75.4 -15.5 74.1 13.2 61.3 33.5C48.5 53.8 24.3 65.6 -2.5 67C-29.3 68.5 -58.6 59.6 -70 40.2C-81.3 20.8 -74.7 -9.3 -60 -34.6C-45.4 -59.9 -22.7 -80.4 1.4 -81.2C25.6 -82.1 51.2 -63.2 63.3 -39.4Z" fill="#97c9be"></path></g><g transform="translate(337 47)"><path d="M17.7 -10.4C20.8 -4.9 19.7 2.9 16 8.8C12.4 14.7 6.2 18.7 0.1 18.7C-6.1 18.7 -12.1 14.6 -15.3 9C-18.4 3.4 -18.7 -3.8 -15.6 -9.2C-12.6 -14.7 -6.3 -18.4 0.5 -18.7C7.3 -19 14.6 -15.8 17.7 -10.4Z" fill="#97c9be"></path></g><g transform="translate(912 41)"><path d="M39.1 -22.5C47.1 -8.7 47.5 9.5 39.8 22.8C32 36.2 16 44.6 0.6 44.3C-14.9 44 -29.7 34.9 -37.5 21.5C-45.3 8.2 -46 -9.4 -38.6 -22.9C-31.2 -36.4 -15.6 -45.7 0 -45.7C15.6 -45.7 31.1 -36.3 39.1 -22.5Z" fill="#97c9be"></path></g><g transform="translate(946 284)"><path d="M16 -9.5C19.1 -3.9 18.9 3.4 15.7 9C12.4 14.5 6.2 18.2 -0.6 18.5C-7.3 18.8 -14.7 15.8 -18.4 10C-22.1 4.2 -22.2 -4.4 -18.5 -10.3C-14.9 -16.3 -7.4 -19.8 -0.5 -19.5C6.5 -19.2 12.9 -15.2 16 -9.5Z" fill="#97c9be"></path></g></g></svg>