<svg id="visual" viewBox="0 0 960 540" width="960" height="540" xmlns="http://www.w3.org/2000/svg" xmlns:xlink="http://www.w3.org/1999/xlink" version="1.1"><path d="M0 28L14.5 29.8C29 31.7 58 35.3 87.2 36.2C116.3 37 145.7 35 174.8 38.5C204 42 233 51 262 50.2C291 49.3 320 38.7 349 39.7C378 40.7 407 53.3 436.2 57C465.3 60.7 494.7 55.3 523.8 49.8C553 44.3 582 38.7 611 41.3C640 44 669 55 698 54.2C727 53.3 756 40.7 785.2 40.7C814.3 40.7 843.7 53.3 872.8 57C902 60.7 931 55.3 945.5 52.7L960 50L960 0L945.5 0C931 0 902 0 872.8 0C843.7 0 814.3 0 785.2 0C756 0 727 0 698 0C669 0 640 0 611 0C582 0 553 0 523.8 0C494.7 0 465.3 0 436.2 0C407 0 378 0 349 0C320 0 291 0 262 0C233 0 204 0 174.8 0C145.7 0 116.3 0 87.2 0C58 0 29 0 14.5 0L0 0Z" fill="#448f7f"></path><path d="M0 60L14.5 68.2C29 76.3 58 92.7 87.2 98.2C116.3 103.7 145.7 98.3 174.8 97.5C204 96.7 233 100.3 262 99.3C291 98.3 320 92.7 349 97.2C378 101.7 407 116.3 436.2 116.3C465.3 116.3 494.7 101.7 523.8 94.3C553 87 582 87 611 90.7C640 94.3 669 101.7 698 102.7C727 103.7 756 98.3 785.2 100.2C814.3 102 843.7 111 872.8 113.7C902 116.3 931 112.7 945.5 110.8L960 109L960 48L945.5 50.7C931 53.3 902 58.7 872.8 55C843.7 51.3 814.3 38.7 785.2 38.7C756 38.7 727 51.3 698 52.2C669 53 640 42 611 39.3C582 36.7 553 42.3 523.8 47.8C494.7 53.3 465.3 58.7 436.2 55C407 51.3 378 38.7 349 37.7C320 36.7 291 47.3 262 48.2C233 49 204 40 174.8 36.5C145.7 33 116.3 35 87.2 34.2C58 33.3 29 29.7 14.5 27.8L0 26Z" fill="#4da08e"></path><path d="M0 136L14.5 155.8C29 175.7 58 215.3 87.2 219.8C116.3 224.3 145.7 193.7 174.8 190C204 186.3 233 209.7 262 220.5C291 231.3 320 229.7 349 220.7C378 211.7 407 195.3 436.2 187.2C465.3 179 494.7 179 523.8 191.7C553 204.3 582 229.7 611 249.5C640 269.3 669 283.7 698 276.5C727 269.3 756 240.7 785.2 246C814.3 251.3 843.7 290.7 872.8 296C902 301.3 931 272.7 945.5 258.3L960 244L960 107L945.5 108.8C931 110.7 902 114.3 872.8 111.7C843.7 109 814.3 100 785.2 98.2C756 96.3 727 101.7 698 100.7C669 99.7 640 92.3 611 88.7C582 85 553 85 523.8 92.3C494.7 99.7 465.3 114.3 436.2 114.3C407 114.3 378 99.7 349 95.2C320 90.7 291 96.3 262 97.3C233 98.3 204 94.7 174.8 95.5C145.7 96.3 116.3 101.7 87.2 96.2C58 90.7 29 74.3 14.5 66.2L0 58Z" fill="#55b19d"></path><path d="M0 314L14.5 333C29 352 58 390 87.2 390C116.3 390 145.7 352 174.8 342C204 332 233 350 262 350C291 350 320 332 349 327.5C378 323 407 332 436.2 332C465.3 332 494.7 323 523.8 324.8C553 326.7 582 339.3 611 348.3C640 357.3 669 362.7 698 360C727 357.3 756 346.7 785.2 355.7C814.3 364.7 843.7 393.3 872.8 400.5C902 407.7 931 393.3 945.5 386.2L960 379L960 242L945.5 256.3C931 270.7 902 299.3 872.8 294C843.7 288.7 814.3 249.3 785.2 244C756 238.7 727 267.3 698 274.5C669 281.7 640 267.3 611 247.5C582 227.7 553 202.3 523.8 189.7C494.7 177 465.3 177 436.2 185.2C407 193.3 378 209.7 349 218.7C320 227.7 291 229.3 262 218.5C233 207.7 204 184.3 174.8 188C145.7 191.7 116.3 222.3 87.2 217.8C58 213.3 29 173.7 14.5 153.8L0 134Z" fill="#5ec2ad"></path><path d="M0 438L14.5 444.3C29 450.7 58 463.3 87.2 462.5C116.3 461.7 145.7 447.3 174.8 437.5C204 427.7 233 422.3 262 420.5C291 418.7 320 420.3 349 424.8C378 429.3 407 436.7 436.2 437.7C465.3 438.7 494.7 433.3 523.8 434.2C553 435 582 442 611 439.2C640 436.3 669 423.7 698 418.3C727 413 756 415 785.2 424C814.3 433 843.7 449 872.8 458C902 467 931 469 945.5 470L960 471L960 377L945.5 384.2C931 391.3 902 405.7 872.8 398.5C843.7 391.3 814.3 362.7 785.2 353.7C756 344.7 727 355.3 698 358C669 360.7 640 355.3 611 346.3C582 337.3 553 324.7 523.8 322.8C494.7 321 465.3 330 436.2 330C407 330 378 321 349 325.5C320 330 291 348 262 348C233 348 204 330 174.8 340C145.7 350 116.3 388 87.2 388C58 388 29 350 14.5 331L0 312Z" fill="#70c8b6"></path><path d="M0 460L14.5 467.2C29 474.3 58 488.7 87.2 492.3C116.3 496 145.7 489 174.8 482.7C204 476.3 233 470.7 262 469.7C291 468.7 320 472.3 349 474.2C378 476 407 476 436.2 474.2C465.3 472.3 494.7 468.7 523.8 470.5C553 472.3 582 479.7 611 478C640 476.3 669 465.7 698 463C727 460.3 756 465.7 785.2 473.7C814.3 481.7 843.7 492.3 872.8 497.7C902 503 931 503 945.5 503L960 503L960 469L945.5 468C931 467 902 465 872.8 456C843.7 447 814.3 431 785.2 422C756 413 727 411 698 416.3C669 421.7 640 434.3 611 437.2C582 440 553 433 523.8 432.2C494.7 431.3 465.3 436.7 436.2 435.7C407 434.7 378 427.3 349 422.8C320 418.3 291 416.7 262 418.5C233 420.3 204 425.7 174.8 435.5C145.7 445.3 116.3 459.7 87.2 460.5C58 461.3 29 448.7 14.5 442.3L0 436Z" fill="#81cfbf"></path><path d="M0 541L14.5 541C29 541 58 541 87.2 541C116.3 541 145.7 541 174.8 541C204 541 233 541 262 541C291 541 320 541 349 541C378 541 407 541 436.2 541C465.3 541 494.7 541 523.8 541C553 541 582 541 611 541C640 541 669 541 698 541C727 541 756 541 785.2 541C814.3 541 843.7 541 872.8 541C902 541 931 541 945.5 541L960 541L960 501L945.5 501C931 501 902 501 872.8 495.7C843.7 490.3 814.3 479.7 785.2 471.7C756 463.7 727 458.3 698 461C669 463.7 640 474.3 611 476C582 477.7 553 470.3 523.8 468.5C494.7 466.7 465.3 470.3 436.2 472.2C407 474 378 474 349 472.2C320 470.3 291 466.7 262 467.7C233 468.7 204 474.3 174.8 480.7C145.7 487 116.3 494 87.2 490.3C58 486.7 29 472.3 14.5 465.2L0 458Z" fill="#92d5c8"></path></svg>